<svg width="78" height="14" viewBox="0 0 78 14" fill="none" xmlns="http://www.w3.org/2000/svg">
<path d="M7.52719 11.0573L11.6612 13.575L10.5641 8.82975L14.2166 5.637L9.40691 5.22525L7.52719 0.75L5.64748 5.22525L0.83786 5.637L4.49023 8.82975L3.39319 13.575L7.52719 11.0573Z" fill="white"/>
<path d="M23.5815 11.0573L27.7156 13.575L26.6186 8.82975L30.2709 5.637L25.4613 5.22525L23.5815 0.75L21.7019 5.22525L16.8922 5.637L20.5446 8.82975L19.4476 13.575L23.5815 11.0573Z" fill="white"/>
<path d="M39.636 11.0573L43.7699 13.575L42.6729 8.82975L46.3253 5.637L41.5156 5.22525L39.636 0.75L37.7562 5.22525L32.9466 5.637L36.599 8.82975L35.502 13.575L39.636 11.0573Z" fill="white"/>
<path d="M54.7985 11.0573L58.9324 13.575L57.8354 8.82975L61.4877 5.637L56.6781 5.22525L54.7985 0.75L52.9187 5.22525L48.1091 5.637L51.7614 8.82975L50.6644 13.575L54.7985 11.0573Z" fill="white"/>
<path d="M70.7984 11.0573L74.9324 13.575L73.8354 8.82975L77.4877 5.637L72.6781 5.22525L70.7984 0.75L68.9187 5.22525L64.1091 5.637L67.7614 8.82975L66.6644 13.575L70.7984 11.0573Z" fill="white"/>
</svg>
