<svg width="24" height="24" viewBox="0 0 24 24" fill="none" xmlns="http://www.w3.org/2000/svg">
<path d="M23.04 5.21969e-07H0.960001C0.833895 -0.000131044 0.709001 0.0246103 0.592469 0.0728082C0.475937 0.121006 0.370055 0.191714 0.280885 0.280885C0.191714 0.370055 0.121006 0.475937 0.0728082 0.592469C0.0246103 0.709001 -0.000131044 0.833895 5.21969e-07 0.960001V23.04C5.21969e-07 23.571 0.429 24 0.960001 24H23.04C23.571 24 24 23.571 24 23.04V0.960001C24.0001 0.833895 23.9754 0.709001 23.9272 0.592469C23.879 0.475937 23.8083 0.370055 23.7191 0.280885C23.6299 0.191714 23.5241 0.121006 23.4075 0.0728082C23.291 0.0246103 23.1661 -0.000131044 23.04 5.21969e-07ZM20.268 7.005H18.351C16.848 7.005 16.557 7.719 16.557 8.769V11.082H20.145L19.677 14.703H16.557V24H12.816V14.706H9.687V11.082H12.816V8.412C12.816 5.313 14.709 3.624 17.475 3.624C18.801 3.624 19.938 3.723 20.271 3.768V7.005H20.268Z" fill="#094709"/>
</svg>
