<svg width="24" height="25" viewBox="0 0 24 25" fill="none" xmlns="http://www.w3.org/2000/svg">
<path d="M11.9889 6.1818C11.1805 6.18061 10.3799 6.33896 9.63284 6.64775C8.88579 6.95655 8.20702 7.40973 7.63542 7.98133C7.06383 8.55292 6.61065 9.2317 6.30185 9.97875C5.99305 10.7258 5.83471 11.5264 5.83589 12.3348C5.83471 13.1432 5.99305 13.9438 6.30185 14.6909C6.61065 15.4379 7.06383 16.1167 7.63542 16.6883C8.20702 17.2599 8.88579 17.713 9.63284 18.0218C10.3799 18.3306 11.1805 18.489 11.9889 18.4878C12.7972 18.489 13.5979 18.3306 14.3449 18.0218C15.092 17.713 15.7708 17.2599 16.3424 16.6883C16.914 16.1167 17.3671 15.4379 17.6759 14.6909C17.9847 13.9438 18.1431 13.1432 18.1419 12.3348C18.1431 11.5264 17.9847 10.7258 17.6759 9.97875C17.3671 9.2317 16.914 8.55292 16.3424 7.98133C15.7708 7.40973 15.092 6.95655 14.3449 6.64775C13.5979 6.33896 12.7972 6.18061 11.9889 6.1818ZM11.9889 16.3338C10.9288 16.3319 9.91258 15.9101 9.16286 15.1605C8.41315 14.411 7.99101 13.3949 7.98889 12.3348C7.99101 11.2747 8.41315 10.2586 9.16286 9.50906C9.91258 8.75953 10.9288 8.33765 11.9889 8.3358C13.049 8.33791 14.0651 8.76005 14.8146 9.50977C15.5642 10.2595 15.986 11.2757 15.9879 12.3358C15.9855 13.3958 15.5633 14.4116 14.8136 15.1609C14.0639 15.9102 13.0478 16.3319 11.9879 16.3338H11.9889ZM18.3939 4.4958C17.5989 4.4958 16.9569 5.1378 16.9569 5.9328C16.9569 6.7278 17.5989 7.3698 18.3939 7.3698C18.6306 7.37086 18.8639 7.31326 19.0729 7.20216C19.2819 7.09105 19.4602 6.92989 19.5917 6.73308C19.7233 6.53627 19.804 6.30994 19.8267 6.07432C19.8494 5.83869 19.8134 5.60111 19.7219 5.3828C19.6132 5.1201 19.429 4.89557 19.1926 4.73767C18.9562 4.57976 18.6782 4.49558 18.3939 4.4958ZM23.9829 12.3358C23.9829 10.6788 23.9979 9.0378 23.9049 7.3858C23.8119 5.4658 23.3739 3.7608 21.9699 2.3568C20.5629 0.949799 18.8619 0.514799 16.9419 0.421799C15.2859 0.328799 13.6449 0.344799 11.9919 0.344799C10.3359 0.344799 8.69489 0.329799 7.04189 0.422799C5.12189 0.514799 3.41689 0.952799 2.01389 2.3568C0.606892 3.7648 0.171892 5.4648 0.0788923 7.3848C-0.0141077 9.0408 0.000892326 10.6818 0.000892326 12.3348C0.000892326 13.9878 -0.0141077 15.6318 0.0788923 17.2848C0.171892 19.2048 0.608892 20.9088 2.01389 22.3128C3.42089 23.7198 5.12189 24.1548 7.04189 24.2478C8.69789 24.3408 10.3389 24.3258 11.9919 24.3258C13.6479 24.3258 15.2889 24.3408 16.9419 24.2478C18.8619 24.1548 20.5659 23.7178 21.9699 22.3128C23.3769 20.9058 23.8119 19.2048 23.9049 17.2848C24.0009 15.6318 23.9829 13.9908 23.9829 12.3348V12.3358ZM21.3429 19.4088C21.1445 19.9273 20.8353 20.3962 20.4369 20.7828C20.0498 21.1806 19.581 21.4897 19.0629 21.6888C17.4849 22.3158 13.7379 22.1748 11.9889 22.1748C10.2389 22.1748 6.48889 22.3158 4.91189 21.6918C4.39338 21.4935 3.92446 21.1842 3.53789 20.7858C3.14009 20.3987 2.83098 19.9299 2.63189 19.4118C2.00789 17.8318 2.14889 14.0838 2.14889 12.3348C2.14889 10.5858 2.00789 6.8358 2.63189 5.2578C2.85089 4.7118 3.11489 4.3038 3.53789 3.8838C3.96089 3.4638 4.36589 3.1968 4.91189 2.9778C6.48989 2.3538 10.2399 2.4948 11.9889 2.4948C13.7379 2.4948 17.4879 2.3548 19.0659 2.9778C19.6119 3.1978 20.0199 3.4608 20.4399 3.8838C20.8629 4.3068 21.1269 4.7118 21.3459 5.2578C21.9699 6.8358 21.8289 10.5858 21.8289 12.3348C21.8289 14.0848 21.9689 17.8308 21.3429 19.4088Z" fill="white"/>
</svg>
