<svg width="24" height="27" viewBox="0 0 24 27" fill="none" xmlns="http://www.w3.org/2000/svg">
<path d="M24 6.57813V10.8729C23.7561 10.8729 23.4634 10.9192 23.1708 10.9192C20.9757 10.9192 18.9268 10.1341 17.3659 8.88719V18.0311C17.3659 19.8784 16.7317 21.6332 15.6098 23.0187C14.0488 25.0045 11.5122 26.3437 8.63418 26.3437C5.5122 26.3437 2.7805 24.7736 1.26829 22.4644C2.82927 23.8499 4.92683 24.7273 7.21952 24.7273C10.0488 24.7273 12.5854 23.4343 14.1464 21.4023C15.2196 20.0169 15.9025 18.3082 15.9025 16.4147V7.22467C17.4634 8.51774 19.4634 9.25663 21.7073 9.25663C22 9.25663 22.2439 9.25663 22.5366 9.21046V6.43958C22.9756 6.53194 23.3659 6.57813 23.805 6.57813H24Z" fill="white"/>
<path d="M9.85364 9.76521V14.5218C9.51219 14.4296 9.12189 14.3833 8.78044 14.3833C6.6341 14.3833 4.87799 16.092 4.87799 18.1702C4.87799 18.632 4.97556 19.0477 5.12191 19.4633C4.14629 18.7705 3.46336 17.6623 3.46336 16.4154C3.46336 14.3372 5.21946 12.6284 7.3658 12.6284C7.75606 12.6284 8.09752 12.6747 8.43899 12.767V9.71904C8.53654 9.71904 8.63414 9.71904 8.73171 9.71904C9.12189 9.71904 9.51219 9.71904 9.85364 9.76521Z" fill="white"/>
<path d="M22.5853 6.48586V9.25674C22.3415 9.30292 22.0489 9.30292 21.7561 9.30292C19.561 9.30292 17.5122 8.51784 15.9512 7.27094V16.4148C15.9512 18.2621 15.3172 20.017 14.1951 21.4024C12.5854 23.4344 10.0976 24.7275 7.26831 24.7275C4.97562 24.7275 2.87806 23.8501 1.31708 22.4645C0.487815 21.1715 0 19.6937 0 18.0773C0 13.5977 3.7561 9.94946 8.43904 9.81091V12.8589C8.09758 12.7665 7.70734 12.7203 7.36587 12.7203C5.21952 12.7203 3.46343 14.429 3.46343 16.5072C3.46343 17.7541 4.09757 18.9086 5.12196 19.5551C5.65855 20.9868 7.12197 22.0489 8.78048 22.0489C10.9269 22.0489 12.683 20.3402 12.683 18.2621V0.34375H16.2439C16.5854 1.45211 17.2196 2.42192 18.0976 3.16081C18.9757 4.82334 20.6342 6.07023 22.5853 6.48586Z" fill="white"/>
</svg>
