<svg width="23" height="23" viewBox="0 0 23 23" fill="none" xmlns="http://www.w3.org/2000/svg">
<path d="M22.3538 9.28864H11.945V13.6024H17.935C17.3775 16.3436 15.0438 17.9186 11.945 17.9186C11.0779 17.9201 10.2191 17.7504 9.41774 17.4192C8.6164 17.0881 7.88831 16.602 7.27525 15.9888C6.66219 15.3756 6.17621 14.6474 5.84519 13.846C5.51417 13.0446 5.34462 12.1857 5.34627 11.3186C5.34479 10.4517 5.51446 9.59293 5.84555 8.79166C6.17664 7.99039 6.66265 7.26236 7.27569 6.64932C7.88874 6.03627 8.61677 5.55027 9.41803 5.21917C10.2193 4.88808 11.078 4.71841 11.945 4.71989C13.5188 4.71989 14.9413 5.27864 16.0575 6.19239L19.3075 2.94364C17.3275 1.21739 14.7888 0.152391 11.945 0.152391C10.4773 0.148101 9.02317 0.434029 7.66633 0.993729C6.30949 1.55343 5.07669 2.37586 4.03884 3.41371C3.00098 4.45156 2.17855 5.68436 1.61885 7.0412C1.05915 8.39804 0.773227 9.85215 0.777517 11.3199C0.773061 12.7877 1.05888 14.2419 1.61852 15.5988C2.17816 16.9557 3.00058 18.1886 4.03847 19.2264C5.07635 20.2643 6.30922 21.0868 7.66613 21.6464C9.02305 22.206 10.4772 22.4919 11.945 22.4874C17.5288 22.4874 22.6063 18.4261 22.6063 11.3199C22.6063 10.6599 22.505 9.94864 22.3538 9.28864Z" fill="white"/>
</svg>
