<svg width="55" height="55" viewBox="0 0 55 55" fill="none" xmlns="http://www.w3.org/2000/svg">
<path d="M26.2498 5.19945L4.57708 13.7204C4.07269 13.9216 4.07269 14.6353 4.57708 14.8365L27.5134 23.8538C27.6538 23.9101 27.8104 23.9101 27.9507 23.8538L50.8871 14.8365C51.3942 14.6353 51.3942 13.9216 50.8871 13.7204L29.2144 5.19945C28.2619 4.82382 27.2023 4.82382 26.2498 5.19945V5.19945Z" fill="#7F957B"/>
<path d="M19.8805 13.2161L12.6929 18.0266L19.7651 20.8088L19.8805 13.2161Z" fill="#094709"/>
<path d="M35.5837 13.2161L42.7712 18.0266L35.7017 20.8088L35.5837 13.2161Z" fill="#094709"/>
<path d="M38.4946 29.7482H16.9695L18.9629 14.2195C18.9949 13.9785 19.1 13.753 19.264 13.5736C19.4281 13.3942 19.6433 13.2694 19.8805 13.2161C25.6005 11.9426 30.8492 11.9345 35.6266 13.1919C35.854 13.2509 36.0584 13.3768 36.2134 13.5533C36.3684 13.7298 36.4668 13.9488 36.4958 14.1819L38.4946 29.7482Z" fill="#7F957B"/>
<path d="M22.3568 16.6583C22.3884 16.4171 22.4934 16.1915 22.6575 16.012C22.8217 15.8325 23.037 15.7078 23.2744 15.6548C28.05 14.5924 32.4974 14.4109 36.6166 15.1102L36.4959 14.1819C36.4668 13.9488 36.3684 13.7298 36.2134 13.5533C36.0584 13.3768 35.854 13.2509 35.6266 13.1919C30.851 11.9345 25.6023 11.9426 19.8805 13.2161C19.6433 13.2694 19.4281 13.3942 19.264 13.5736C19.1 13.753 18.9949 13.9785 18.9629 14.2195L16.9695 29.7482H20.6773L22.3568 16.6583Z" fill="#094709"/>
<path d="M27.7334 31.071C33.6767 31.071 38.4946 30.4788 38.4946 29.7483C38.4946 29.0178 33.6767 28.4257 27.7334 28.4257C21.7902 28.4257 16.9722 29.0178 16.9722 29.7483C16.9722 30.4788 21.7902 31.071 27.7334 31.071Z" fill="#094709"/>
<path d="M43.7693 27.28C43.6987 27.2803 43.6288 27.2667 43.5635 27.2399C43.4982 27.213 43.4389 27.1735 43.389 27.1236C43.3391 27.0737 43.2996 27.0144 43.2728 26.9492C43.246 26.8839 43.2323 26.814 43.2327 26.7434V11.5097C43.2327 11.3674 43.2892 11.2309 43.3898 11.1303C43.4905 11.0297 43.6269 10.9731 43.7693 10.9731C43.9116 10.9731 44.0481 11.0297 44.1487 11.1303C44.2493 11.2309 44.3059 11.3674 44.3059 11.5097V26.7434C44.3059 26.8857 44.2493 27.0222 44.1487 27.1228C44.0481 27.2234 43.9116 27.28 43.7693 27.28V27.28Z" fill="#094709"/>
<path d="M43.6941 32.552C43.2012 32.5513 42.7287 32.3552 42.3802 32.0066C42.0317 31.6581 41.8356 31.1856 41.8349 30.6927V27.7093C41.8531 27.2288 42.0569 26.774 42.4033 26.4405C42.7497 26.107 43.2119 25.9207 43.6928 25.9207C44.1737 25.9207 44.6359 26.107 44.9823 26.4405C45.3287 26.774 45.5325 27.2288 45.5507 27.7093V30.6927C45.55 31.1851 45.3543 31.6572 45.0063 32.0057C44.6584 32.3541 44.1866 32.5506 43.6941 32.552V32.552Z" fill="#7F957B"/>
<path d="M42.7712 31.7121V28.7287C42.7708 28.4147 42.85 28.1057 43.0015 27.8306C43.153 27.5556 43.3718 27.3234 43.6374 27.1559C43.903 26.9884 44.2068 26.891 44.5203 26.8728C44.8338 26.8546 45.1468 26.9163 45.43 27.0519C45.2772 26.6441 44.9859 26.303 44.607 26.0883C44.2282 25.8735 43.7859 25.7988 43.3575 25.8771C42.9291 25.9554 42.5419 26.1818 42.2636 26.5167C41.9852 26.8517 41.8335 27.2738 41.8349 27.7092V30.6926C41.8353 31.0433 41.9347 31.3867 42.1217 31.6834C42.3087 31.98 42.5757 32.2178 42.8919 32.3694C42.812 32.1595 42.7711 31.9367 42.7712 31.7121V31.7121Z" fill="#094709"/>
<path d="M49.0304 34.4863C48.8617 34.2589 48.6421 34.0741 48.3891 33.9469C48.1361 33.8197 47.8568 33.7536 47.5736 33.7539H6.46047C6.17732 33.7538 5.89808 33.82 5.6451 33.9472C5.39213 34.0744 5.17244 34.259 5.00364 34.4863C3.31161 36.7686 3.31161 39.0509 5.00364 41.3332C5.17244 41.5605 5.39213 41.7451 5.6451 41.8723C5.89808 41.9995 6.17732 42.0657 6.46047 42.0656H47.5736C47.8568 42.0659 48.1361 41.9998 48.3891 41.8726C48.6421 41.7454 48.8617 41.5606 49.0304 41.3332C50.726 39.0509 50.726 36.7686 49.0304 34.4863Z" fill="#7F957B"/>
<path d="M50.0956 39.0956H8.98243C8.69924 39.096 8.41993 39.0299 8.16692 38.9027C7.91391 38.7755 7.69425 38.5907 7.5256 38.3632C6.38625 36.8286 6.01332 35.2921 6.40682 33.7539C6.13302 33.7632 5.86479 33.8338 5.62193 33.9606C5.37907 34.0873 5.16778 34.267 5.00364 34.4864C3.31161 36.7686 3.31161 39.0509 5.00364 41.3332C5.17245 41.5605 5.39213 41.7452 5.64511 41.8724C5.89808 41.9996 6.17733 42.0658 6.46048 42.0657H47.5737C47.8569 42.066 48.1362 41.9999 48.3892 41.8727C48.6422 41.7455 48.8619 41.5607 49.0305 41.3332C49.5868 40.5874 49.9597 39.8415 50.1493 39.0956H50.0956Z" fill="#48955D"/>
<path d="M14.9842 33.7539H11.6332V42.0662H14.9842V33.7539Z" fill="#094709"/>
<path d="M42.401 33.7539H39.05V42.0662H42.401V33.7539Z" fill="#094709"/>
<path d="M35.0264 17.1254L35.0237 17.1258C34.1394 17.2533 33.5258 18.0735 33.6532 18.9578L34.6449 25.8398C34.7724 26.7242 35.5926 27.3378 36.4769 27.2104L36.4796 27.21C37.3639 27.0826 37.9775 26.2623 37.8501 25.378L36.8584 18.496C36.731 17.6116 35.9107 16.998 35.0264 17.1254Z" fill="#48955D"/>
<path d="M30.5153 7.69685L30.5144 7.69937C30.2103 8.53951 30.6448 9.46712 31.4849 9.77125L38.0229 12.1379C38.863 12.4421 39.7906 12.0075 40.0947 11.1674L40.0957 11.1649C40.3998 10.3247 39.9653 9.39713 39.1251 9.093L32.5872 6.72631C31.747 6.42219 30.8194 6.85671 30.5153 7.69685Z" fill="#48955D"/>
<path d="M45.5105 28.7717C45.5105 28.3509 45.1693 28.0098 44.7485 28.0098C44.3277 28.0098 43.9866 28.3509 43.9866 28.7717V30.3098C43.9866 30.7307 44.3277 31.0718 44.7485 31.0718C45.1693 31.0718 45.5105 30.7307 45.5105 30.3098V28.7717Z" fill="#48955D"/>
<path d="M34.4461 41.1508C34.4461 41.8993 33.3622 42.4681 33.1422 43.1415C32.9222 43.8149 33.4507 44.9364 33.0268 45.5186C32.6029 46.1008 31.3902 45.9317 30.8027 46.361C30.2151 46.7903 30.0139 47.9895 29.3137 48.2176C28.6134 48.4456 27.7656 47.5898 27.0171 47.5898C26.2685 47.5898 25.3966 48.4376 24.7232 48.2176C24.0498 47.9976 23.8163 46.7849 23.2341 46.361C22.6519 45.9371 21.4366 46.1061 21.01 45.5186C20.5834 44.931 21.12 43.8417 20.8946 43.1415C20.6693 42.4412 19.5907 41.8993 19.5907 41.1508C19.5907 40.4022 20.6746 39.8361 20.8946 39.1627C21.1146 38.4893 20.5861 37.3678 21.01 36.7856C21.4339 36.2034 22.6466 36.3698 23.2341 35.9432C23.8217 35.5166 24.0229 34.312 24.7232 34.0866C25.4234 33.8612 26.2712 34.7144 27.0171 34.7144C27.7629 34.7144 28.6402 33.8666 29.3137 34.0866C29.9871 34.3066 30.2205 35.5193 30.8027 35.9432C31.3849 36.3671 32.6002 36.1981 33.0268 36.7856C33.4534 37.3732 32.9141 38.4625 33.1422 39.1627C33.3702 39.863 34.4461 40.4049 34.4461 41.1508Z" fill="#FFD15C"/>
<path d="M26.8453 46.4738C25.8846 46.473 24.9456 46.1875 24.147 45.6534C23.3484 45.1193 22.726 44.3606 22.3583 43.473C21.9905 42.5854 21.894 41.6088 22.081 40.6664C22.2679 39.724 22.7299 38.8581 23.4085 38.1781C23.8524 37.7356 24.377 37.3822 24.9539 37.1371C25.8447 36.7605 26.8277 36.6582 27.777 36.8436C28.7263 37.0289 29.5986 37.4933 30.2824 38.1774C30.9662 38.8614 31.4302 39.734 31.6151 40.6834C31.8001 41.6328 31.6974 42.6157 31.3204 43.5064C30.9486 44.3861 30.3259 45.1367 29.53 45.6644C28.7341 46.1922 27.8003 46.4737 26.8453 46.4738V46.4738Z" fill="#F4A93F"/>
<path d="M29.9254 42.6719C29.8814 42.5743 29.8005 42.498 29.7005 42.4598C29.6004 42.4216 29.4893 42.4245 29.3915 42.468L26.408 43.8095C26.3672 43.8291 26.3292 43.8544 26.2954 43.8846C26.2615 43.8544 26.2236 43.8291 26.1827 43.8095L23.1993 42.468C23.1014 42.4245 22.9903 42.4216 22.8902 42.4598C22.7902 42.498 22.7093 42.5743 22.6654 42.6719L21.281 45.7546C21.8202 46.0659 22.7432 46.0041 23.2341 46.361C23.7976 46.7715 24.0095 47.9117 24.6561 48.1934L26.2954 44.5473L27.7495 47.7803C28.2941 48.0164 28.8522 48.3678 29.3137 48.2176C30.0139 47.9895 30.2205 46.7849 30.8027 46.361C30.9798 46.2322 31.2132 46.1571 31.4654 46.1007L29.9254 42.6719Z" fill="#F4A93F"/>
<path d="M23.9156 49.8783L23.21 48.6281C23.1677 48.5529 23.1024 48.4932 23.0237 48.458C22.9449 48.4227 22.8569 48.4137 22.7727 48.4322L21.3695 48.7327C21.2965 48.748 21.2208 48.7429 21.1505 48.7178C21.0803 48.6928 21.0183 48.6489 20.9714 48.5909C20.9245 48.533 20.8946 48.4632 20.8848 48.3892C20.875 48.3153 20.8859 48.2401 20.9161 48.172L23.3898 42.6719C23.4337 42.5743 23.5146 42.498 23.6146 42.4598C23.7147 42.4216 23.8258 42.4245 23.9237 42.468L26.9071 43.8095C27.0038 43.8545 27.079 43.9356 27.1166 44.0354C27.1542 44.1352 27.1512 44.2458 27.1083 44.3434L24.6346 49.8435C24.6045 49.9118 24.5559 49.9705 24.4943 50.0128C24.4327 50.0551 24.3605 50.0795 24.2859 50.0831C24.2113 50.0867 24.1371 50.0695 24.0717 50.0333C24.0063 49.9971 23.9522 49.9435 23.9156 49.8783Z" fill="#CD2E23"/>
<path d="M24.2537 43.6807C24.2997 43.5812 24.3257 43.4735 24.3301 43.364C24.3345 43.2544 24.3173 43.145 24.2794 43.0421C24.2416 42.9392 24.1838 42.8448 24.1094 42.7642C24.035 42.6837 23.9454 42.6186 23.8459 42.5726L23.6071 42.4626C23.5098 42.5008 23.4316 42.5761 23.3898 42.6719L20.9161 48.1718C20.8859 48.24 20.875 48.3152 20.8848 48.3891C20.8946 48.463 20.9245 48.5328 20.9714 48.5908C21.0183 48.6488 21.0803 48.6927 21.1505 48.7177C21.2208 48.7427 21.2965 48.7478 21.3695 48.7326L21.9759 48.6011L24.2537 43.6807Z" fill="#B11A31"/>
<path d="M30.1212 49.8783L30.8268 48.6281C30.8691 48.5528 30.9344 48.4932 31.0131 48.458C31.0919 48.4227 31.1799 48.4137 31.2641 48.4322L32.6673 48.7327C32.7403 48.748 32.816 48.7428 32.8863 48.7178C32.9565 48.6928 33.0185 48.6489 33.0654 48.5909C33.1123 48.5329 33.1422 48.4631 33.152 48.3892C33.1618 48.3153 33.1509 48.2401 33.1207 48.172L30.6471 42.6719C30.6031 42.5743 30.5222 42.498 30.4222 42.4598C30.3221 42.4216 30.211 42.4245 30.1132 42.468L27.1298 43.8095C27.0326 43.8539 26.9569 43.935 26.9192 44.035C26.8815 44.135 26.8849 44.2458 26.9285 44.3434L29.3995 49.8434C29.4301 49.9117 29.479 49.9702 29.5408 50.0124C29.6026 50.0546 29.6749 50.0788 29.7496 50.0824C29.8244 50.086 29.8987 50.0689 29.9643 50.0328C30.0298 49.9968 30.0842 49.9433 30.1212 49.8783V49.8783Z" fill="#CD2E23"/>
<path d="M27.9051 44.1019L27.001 44.5044L29.3995 49.8434C29.4301 49.9117 29.479 49.9702 29.5408 50.0124C29.6026 50.0546 29.6749 50.0788 29.7497 50.0824C29.8244 50.086 29.8987 50.0689 29.9643 50.0328C30.0299 49.9968 30.0842 49.9433 30.1212 49.8783L30.3224 49.5215L27.9051 44.1019Z" fill="#B11A31"/>
<path d="M26.9071 43.8095L23.9237 42.468C23.8258 42.4245 23.7147 42.4216 23.6146 42.4598C23.5146 42.498 23.4337 42.5743 23.3898 42.6719L22.7137 44.1717C23.0899 44.778 23.5945 45.2942 24.1921 45.6841C24.7897 46.074 25.4655 46.328 26.172 46.4281L27.1083 44.3434C27.1513 44.2458 27.1542 44.1352 27.1166 44.0354C27.079 43.9356 27.0038 43.8545 26.9071 43.8095V43.8095Z" fill="#B11A31"/>
<path d="M31.1702 43.8309L30.6471 42.6719C30.6031 42.5742 30.5222 42.498 30.4222 42.4598C30.3221 42.4216 30.211 42.4245 30.1132 42.468L27.1298 43.8094C27.0326 43.8539 26.9569 43.935 26.9192 44.035C26.8815 44.135 26.8849 44.2458 26.9285 44.3433L27.838 46.3716C28.1461 46.3071 28.4471 46.2127 28.7368 46.0899C29.7862 45.6431 30.6468 44.8442 31.1702 43.8309V43.8309Z" fill="#B11A31"/>
<path d="M27.0171 45.5802C29.5286 45.5802 31.5646 43.5442 31.5646 41.0327C31.5646 38.5211 29.5286 36.4851 27.0171 36.4851C24.5055 36.4851 22.4695 38.5211 22.4695 41.0327C22.4695 43.5442 24.5055 45.5802 27.0171 45.5802Z" fill="#593F25"/>
<path d="M27.0171 45.049C29.2352 45.049 31.0334 43.2509 31.0334 41.0327C31.0334 38.8145 29.2352 37.0164 27.0171 37.0164C24.7989 37.0164 23.0007 38.8145 23.0007 41.0327C23.0007 43.2509 24.7989 45.049 27.0171 45.049Z" fill="#F4A93F"/>
<path d="M27.0171 44.5983C28.9863 44.5983 30.5827 43.0019 30.5827 41.0327C30.5827 39.0634 28.9863 37.467 27.0171 37.467C25.0479 37.467 23.4515 39.0634 23.4515 41.0327C23.4515 43.0019 25.0479 44.5983 27.0171 44.5983Z" fill="#FFD15C"/>
<path d="M30.1937 35.7769C30.2936 35.7183 30.3804 35.6397 30.4486 35.5461C30.0971 35.0149 29.853 34.261 29.3137 34.0866C29.1286 34.0249 28.93 34.0464 28.7207 34.1081C28.6576 34.2297 28.6262 34.3652 28.6295 34.5022C28.6328 34.6392 28.6706 34.7731 28.7395 34.8915L29.0776 35.4791C29.1864 35.6663 29.3649 35.8027 29.5741 35.8585C29.7833 35.9143 30.0061 35.885 30.1937 35.7769V35.7769Z" fill="#FFD15C"/>
<path d="M27.0359 34.9827C27.091 34.8984 27.1301 34.8048 27.1513 34.7064C27.1067 34.7117 27.0619 34.7144 27.0171 34.7144C26.3625 34.7144 25.6086 34.0598 24.9781 34.0491C24.9562 34.2023 24.9784 34.3586 25.042 34.4997C25.1057 34.6408 25.2082 34.7609 25.3376 34.8459L25.9064 35.2188C26.0876 35.3366 26.3082 35.378 26.5198 35.3337C26.7315 35.2895 26.917 35.1633 27.0359 34.9827V34.9827Z" fill="#FFD15C"/>
<path d="M33.1422 39.1627C32.9141 38.4624 33.4507 37.3678 33.0268 36.7856C32.7612 36.418 32.1871 36.3483 31.6532 36.2437C31.508 36.4845 31.4449 36.766 31.4734 37.0458L31.578 38.1405C31.5945 38.3135 31.6449 38.4816 31.7264 38.6351C31.8079 38.7886 31.9188 38.9246 32.0529 39.0352C32.1869 39.1459 32.3415 39.229 32.5076 39.2799C32.6738 39.3307 32.8484 39.3483 33.0214 39.3317C33.082 39.326 33.142 39.3161 33.2012 39.3022C33.1781 39.2572 33.1584 39.2106 33.1422 39.1627V39.1627Z" fill="#FFD15C"/>
<path d="M46.4388 33.7539H43.9651C43.3057 33.7539 42.7712 34.2884 42.7712 34.9478V34.9492C42.7712 35.6085 43.3057 36.1431 43.9651 36.1431H46.4388C47.0982 36.1431 47.6327 35.6085 47.6327 34.9492V34.9478C47.6327 34.2884 47.0982 33.7539 46.4388 33.7539Z" fill="#48955D"/>
<path d="M36.9922 33.7539H34.5185C33.8592 33.7539 33.3246 34.2884 33.3246 34.9478V34.9492C33.3246 35.6085 33.8592 36.1431 34.5185 36.1431H36.9922C37.6516 36.1431 38.1861 35.6085 38.1861 34.9492V34.9478C38.1861 34.2884 37.6516 33.7539 36.9922 33.7539Z" fill="#48955D"/>
<path d="M9.72026 33.7539H8.36538C7.70601 33.7539 7.17148 34.2884 7.17148 34.9478V34.9492C7.17148 35.6085 7.70601 36.1431 8.36538 36.1431H9.72026C10.3796 36.1431 10.9142 35.6085 10.9142 34.9492V34.9478C10.9142 34.2884 10.3796 33.7539 9.72026 33.7539Z" fill="#48955D"/>
</svg>
