<svg width="50" height="50" viewBox="0 0 50 50" fill="none" xmlns="http://www.w3.org/2000/svg">
<path d="M18.2317 27.2244H14.4146C13.1514 27.2254 11.9004 26.9773 10.7332 26.4943C9.56596 26.0114 8.5054 25.303 7.61218 24.4098C6.71896 23.5166 6.01061 22.456 5.52765 21.2888C5.04468 20.1216 4.79659 18.8706 4.79755 17.6074V10.7976C4.79755 10.6682 4.84894 10.5442 4.94042 10.4527C5.03191 10.3612 5.15598 10.3098 5.28535 10.3098H15.8122C15.9416 10.3098 16.0656 10.3612 16.1571 10.4527C16.2486 10.5442 16.3 10.6682 16.3 10.7976C16.3 10.927 16.2486 11.0511 16.1571 11.1425C16.0656 11.234 15.9416 11.2854 15.8122 11.2854H5.77316V17.6074C5.77252 18.7424 5.9956 19.8664 6.42965 20.9151C6.86369 21.9638 7.50019 22.9167 8.30275 23.7192C9.10532 24.5218 10.0582 25.1583 11.1069 25.5924C12.1556 26.0264 13.2796 26.2495 14.4146 26.2488H18.2317C18.3611 26.2488 18.4851 26.3002 18.5766 26.3917C18.6681 26.4832 18.7195 26.6073 18.7195 26.7366C18.7195 26.866 18.6681 26.9901 18.5766 27.0816C18.4851 27.1731 18.3611 27.2244 18.2317 27.2244Z" fill="#F4A93F"/>
<path d="M35.5854 27.2244H31.7C31.5707 27.2244 31.4466 27.1731 31.3551 27.0816C31.2636 26.9901 31.2122 26.866 31.2122 26.7366C31.2122 26.6073 31.2636 26.4832 31.3551 26.3917C31.4466 26.3002 31.5707 26.2488 31.7 26.2488H35.5854C36.7204 26.2495 37.8444 26.0264 38.8931 25.5924C39.9418 25.1583 40.8947 24.5218 41.6973 23.7192C42.4998 22.9167 43.1363 21.9638 43.5704 20.9151C44.0044 19.8664 44.2275 18.7424 44.2269 17.6074V11.2854H36.3683C36.2389 11.2854 36.1149 11.234 36.0234 11.1425C35.9319 11.0511 35.8805 10.927 35.8805 10.7976C35.8805 10.6682 35.9319 10.5442 36.0234 10.4527C36.1149 10.3612 36.2389 10.3098 36.3683 10.3098H44.7147C44.844 10.3098 44.9681 10.3612 45.0596 10.4527C45.1511 10.5442 45.2025 10.6682 45.2025 10.7976V17.6074C45.2034 18.8706 44.9553 20.1216 44.4724 21.2888C43.9894 22.456 43.2811 23.5166 42.3878 24.4098C41.4946 25.303 40.4341 26.0114 39.2668 26.4943C38.0996 26.9773 36.8486 27.2254 35.5854 27.2244V27.2244Z" fill="#F4A93F"/>
<path d="M27.0024 28.2146H22.9976V37.2885H27.0024V28.2146Z" fill="#FFD15C"/>
<path d="M22.9976 29.9097C24.3241 30.1211 25.6758 30.1211 27.0024 29.9097V28.2146H22.9976V29.9097Z" fill="#F4A93F"/>
<path d="M13.6317 8.10242H34.1195C34.7166 8.10242 35.2892 8.3396 35.7114 8.76178C36.1336 9.18397 36.3707 9.75658 36.3707 10.3536V17.6024C36.3707 19.0955 36.0766 20.574 35.5051 21.9534C34.9337 23.3329 34.0961 24.5862 33.0402 25.6419C31.9843 26.6976 30.7308 27.5349 29.3512 28.1061C27.9717 28.6772 26.4931 28.971 25 28.9707V28.9707C21.9849 28.9707 19.0934 27.773 16.9614 25.641C14.8294 23.509 13.6317 20.6175 13.6317 17.6024V8.10242Z" fill="#FFD15C"/>
<path d="M28.3781 27.2024C22.1 27.2024 17.0098 22.1122 17.0098 15.8341V8.10242H13.6317V17.6024C13.6317 23.8805 18.722 28.9707 25 28.9707C27.4861 28.9748 29.9043 28.1596 31.8805 26.6512C30.7493 27.0179 29.5673 27.204 28.3781 27.2024V27.2024Z" fill="#F4A93F"/>
<path d="M31.7 39.344H18.3L19.4878 37.6293C19.5605 37.5239 19.6578 37.4377 19.7713 37.3782C19.8847 37.3187 20.0109 37.2877 20.139 37.2878H29.861C29.9891 37.2877 30.1153 37.3187 30.2287 37.3782C30.3422 37.4377 30.4394 37.5239 30.5122 37.6293L31.7 39.344Z" fill="#7F957B"/>
<path d="M19.5219 38.9074L20.6439 37.2878H20.139C20.0109 37.2877 19.8847 37.3187 19.7713 37.3782C19.6578 37.4377 19.5605 37.5239 19.4878 37.6293L18.3 39.344H31.7L31.3976 38.9074H19.5219Z" fill="black"/>
<path d="M34.1976 39.3439H15.8025C15.0562 39.3439 14.4512 39.9488 14.4512 40.6951V43.7368C14.4512 44.4831 15.0562 45.088 15.8025 45.088H34.1976C34.9438 45.088 35.5488 44.4831 35.5488 43.7368V40.6951C35.5488 39.9488 34.9438 39.3439 34.1976 39.3439Z" fill="#7F957B"/>
<path d="M34.7634 44.2317H16.3707C16.0122 44.2317 15.6682 44.0894 15.4144 43.836C15.1606 43.5827 15.0177 43.239 15.0171 42.8804V39.839C15.0174 39.7513 15.0264 39.6639 15.0439 39.578C14.861 39.7018 14.7113 39.8687 14.608 40.0639C14.5046 40.2591 14.4508 40.4766 14.4512 40.6975V43.7365C14.4512 44.0951 14.5935 44.4391 14.8469 44.6929C15.1002 44.9467 15.4439 45.0896 15.8025 45.0902H34.1976C34.5108 45.0898 34.8141 44.9806 35.0556 44.7813C35.2972 44.5819 35.462 44.3049 35.522 43.9975C35.2989 44.151 35.0342 44.2327 34.7634 44.2317Z" fill="black"/>
<path d="M32.6878 41.2073H17.0439C16.6492 41.2073 16.3293 41.5272 16.3293 41.9219V42.5339C16.3293 42.9285 16.6492 43.2485 17.0439 43.2485H32.6878C33.0825 43.2485 33.4025 42.9285 33.4025 42.5339V41.9219C33.4025 41.5272 33.0825 41.2073 32.6878 41.2073Z" fill="black"/>
<path d="M25.0781 22.9634C24.9489 22.9627 24.8252 22.9111 24.7339 22.8198C24.6425 22.7285 24.5909 22.6048 24.5903 22.4756V13.1829L22.9147 14.461C22.8109 14.529 22.6852 14.5552 22.5629 14.5343C22.4407 14.5134 22.3308 14.4469 22.2557 14.3482C22.1805 14.2495 22.1455 14.1259 22.1578 14.0025C22.1701 13.879 22.2288 13.7648 22.322 13.6829L24.783 11.8097C24.8553 11.7548 24.9415 11.7211 25.0318 11.7125C25.1222 11.7039 25.2132 11.7207 25.2946 11.761C25.376 11.8013 25.4445 11.8635 25.4924 11.9406C25.5403 12.0178 25.5658 12.1067 25.5659 12.1975V22.4756C25.5659 22.605 25.5145 22.729 25.423 22.8205C25.3315 22.912 25.2075 22.9634 25.0781 22.9634V22.9634Z" fill="#F4A93F"/>
<path d="M27.8902 23.4365H22.2097C22.0804 23.4365 21.9563 23.3852 21.8648 23.2937C21.7733 23.2022 21.7219 23.0781 21.7219 22.9487C21.7219 22.8194 21.7733 22.6953 21.8648 22.6038C21.9563 22.5123 22.0804 22.4609 22.2097 22.4609H27.8902C28.0196 22.4609 28.1437 22.5123 28.2351 22.6038C28.3266 22.6953 28.378 22.8194 28.378 22.9487C28.378 23.0781 28.3266 23.2022 28.2351 23.2937C28.1437 23.3852 28.0196 23.4365 27.8902 23.4365V23.4365Z" fill="#F4A93F"/>
<path d="M25.322 22.9634C25.1928 22.9627 25.0691 22.9111 24.9778 22.8198C24.8864 22.7285 24.8348 22.6048 24.8342 22.4756V13.1829L23.1585 14.461C23.0548 14.529 22.9291 14.5552 22.8068 14.5343C22.6846 14.5134 22.5747 14.4469 22.4996 14.3482C22.4244 14.2495 22.3894 14.1259 22.4017 14.0025C22.414 13.879 22.4727 13.7648 22.5659 13.6829L25.0269 11.8097C25.0992 11.7548 25.1854 11.7211 25.2757 11.7125C25.3661 11.7039 25.4571 11.7207 25.5385 11.761C25.6199 11.8013 25.6884 11.8635 25.7363 11.9406C25.7842 12.0178 25.8097 12.1067 25.8098 12.1975V22.4756C25.8098 22.605 25.7584 22.729 25.6669 22.8205C25.5754 22.912 25.4514 22.9634 25.322 22.9634V22.9634Z" fill="black"/>
<path d="M28.1342 23.4365H22.4537C22.3243 23.4365 22.2002 23.3852 22.1088 23.2937C22.0173 23.2022 21.9659 23.0781 21.9659 22.9487C21.9659 22.8194 22.0173 22.6953 22.1088 22.6038C22.2002 22.5123 22.3243 22.4609 22.4537 22.4609H28.1342C28.2635 22.4609 28.3876 22.5123 28.4791 22.6038C28.5706 22.6953 28.622 22.8194 28.622 22.9487C28.622 23.0781 28.5706 23.2022 28.4791 23.2937C28.3876 23.3852 28.2635 23.4365 28.1342 23.4365V23.4365Z" fill="black"/>
<path d="M28.7732 37.2878H22.6439C22.3597 37.2878 22.1293 37.5181 22.1293 37.8021C22.1293 38.0861 22.3597 38.3164 22.6439 38.3164H28.7732C29.0574 38.3164 29.2878 38.0861 29.2878 37.8021C29.2878 37.5181 29.0574 37.2878 28.7732 37.2878Z" fill="#7F957B"/>
<path d="M33.1512 39.3439H22.5976C22.2487 39.3439 21.9659 39.6267 21.9659 39.9756V39.9761C21.9659 40.325 22.2487 40.6078 22.5976 40.6078H33.1512C33.5001 40.6078 33.783 40.325 33.783 39.9761V39.9756C33.783 39.6267 33.5001 39.3439 33.1512 39.3439Z" fill="#7F957B"/>
<path d="M31.6829 8.10242H26.0488C25.4965 8.10242 25.0488 8.54964 25.0488 9.10132C25.0488 9.653 25.4965 10.1002 26.0488 10.1002H31.6829C32.2352 10.1002 32.6829 9.653 32.6829 9.10132C32.6829 8.54964 32.2352 8.10242 31.6829 8.10242Z" fill="#FFD15C"/>
<path d="M36.3292 13C36.3292 12.3306 35.7871 11.7878 35.1183 11.7878C34.4495 11.7878 33.9073 12.3306 33.9073 13V17.3237C33.9073 17.9932 34.4495 18.5359 35.1183 18.5359C35.7871 18.5359 36.3292 17.9932 36.3292 17.3237V13Z" fill="#FFD15C"/>
<path d="M27.0025 32.822C27.0025 32.465 26.7131 32.1757 26.3561 32.1757C25.9992 32.1757 25.7098 32.465 25.7098 32.822V34.8527C25.7098 35.2097 25.9992 35.4991 26.3561 35.4991C26.7131 35.4991 27.0025 35.2097 27.0025 34.8527V32.822Z" fill="#FFD15C"/>
</svg>
