<svg width="44" height="50" viewBox="0 0 44 50" fill="none" xmlns="http://www.w3.org/2000/svg">
<path d="M41.1118 18.5615V47.5816C41.1118 48.2229 40.857 48.838 40.4034 49.2916C39.9499 49.7451 39.3348 49.9999 38.6934 49.9999H4.83667C4.19529 49.9999 3.58018 49.7451 3.12665 49.2916C2.67312 48.838 2.41833 48.2229 2.41833 47.5816V18.5615C2.41833 18.3477 2.50326 18.1427 2.65444 17.9915C2.80562 17.8403 3.01065 17.7554 3.22445 17.7554H40.3056C40.5194 17.7554 40.7245 17.8403 40.8757 17.9915C41.0268 18.1427 41.1118 18.3477 41.1118 18.5615Z" fill="#48955D"/>
<path d="M27.4078 18.5615V49.9999H16.1222V18.5615C16.1222 18.3477 16.2071 18.1427 16.3583 17.9915C16.5095 17.8404 16.7145 17.7554 16.9283 17.7554H26.6017C26.7317 17.7539 26.8598 17.7873 26.9725 17.8522C27.1027 17.9196 27.2121 18.0213 27.2888 18.1463C27.3655 18.2713 27.4066 18.4149 27.4078 18.5615Z" fill="#CD2E23"/>
<path d="M27.4078 18.5616V19.7062L16.1222 30.9918V28.7025L26.9725 17.8522C27.1027 17.9196 27.2121 18.0213 27.2888 18.1463C27.3655 18.2713 27.4066 18.4149 27.4078 18.5616Z" fill="#EBB38C"/>
<path d="M33.5343 5.0189L27.0854 0.18222C26.9899 0.104078 26.8777 0.0489044 26.7575 0.0209525C26.6373 -0.00699946 26.5123 -0.00698396 26.3921 0.0209978C26.2737 0.0532804 26.1642 0.112181 26.072 0.193208C25.9798 0.274235 25.9073 0.375248 25.8601 0.488543L21.0234 11.7741C20.9566 11.9291 20.9401 12.1012 20.9762 12.2661C21.0124 12.4309 21.0994 12.5803 21.225 12.6931C21.3704 12.8333 21.5631 12.9139 21.7651 12.9188C21.9063 12.9198 22.0453 12.8836 22.1681 12.814L33.4537 6.36511C33.5698 6.2986 33.6675 6.20424 33.7381 6.09054C33.8086 5.97683 33.8497 5.84735 33.8577 5.71378C33.8657 5.58021 33.8404 5.44675 33.7839 5.32544C33.7274 5.20413 33.6417 5.09878 33.5343 5.0189Z" fill="#CD2E23"/>
<path d="M22.4503 11.6854L18.4197 5.2365C18.3593 5.14044 18.2794 5.05819 18.185 4.99515C18.0907 4.93211 17.9841 4.88969 17.8723 4.87066C17.7604 4.85164 17.6458 4.85644 17.5359 4.88476C17.4261 4.91307 17.3234 4.96426 17.2347 5.03498L13.2041 8.25943C13.0939 8.34726 13.0086 8.46248 12.9567 8.59358C12.9049 8.72468 12.8884 8.86708 12.9087 9.00657C12.9291 9.14606 12.9858 9.27777 13.073 9.38854C13.1601 9.49932 13.2749 9.58529 13.4057 9.63788L21.4668 12.8623C21.5617 12.8999 21.663 12.919 21.7651 12.9188C21.8835 12.919 22.0005 12.893 22.1078 12.8429C22.2151 12.7927 22.31 12.7196 22.3858 12.6286C22.4944 12.4982 22.5592 12.3368 22.5708 12.1674C22.5824 11.9981 22.5402 11.8294 22.4503 11.6854Z" fill="#CD2E23"/>
<path d="M39.4995 11.307H4.03056C2.96159 11.307 1.9364 11.7317 1.18053 12.4875C0.424648 13.2434 0 14.2686 0 15.3376C0 16.4065 0.424648 17.4317 1.18053 18.1876C1.9364 18.9435 2.96159 19.3681 4.03056 19.3681H39.4995C40.5685 19.3681 41.5937 18.9435 42.3496 18.1876C43.1055 17.4317 43.5301 16.4065 43.5301 15.3376C43.5301 14.2686 43.1055 13.2434 42.3496 12.4875C41.5937 11.7317 40.5685 11.307 39.4995 11.307Z" fill="#094709"/>
<path d="M27.4078 25.4862V27.7594L16.1222 39.045V36.7718L27.4078 25.4862Z" fill="#EBB38C"/>
<path d="M27.4078 33.5472V35.8205L16.1222 47.1061V44.8328L27.4078 33.5472Z" fill="#EBB38C"/>
</svg>
