<svg width="50" height="41" viewBox="0 0 50 41" fill="none" xmlns="http://www.w3.org/2000/svg">
<g opacity="0.2">
<path opacity="0.2" d="M9.375 19.5312V39.0625C9.375 40.7813 10.7812 42.1875 12.5 42.1875H37.5C39.2188 42.1875 40.625 40.7813 40.625 39.0625V19.5312H9.375Z" fill="black"/>
</g>
<path d="M9.375 17.9688V37.5C9.375 39.2188 10.7812 40.625 12.5 40.625H37.5C39.2188 40.625 40.625 39.2188 40.625 37.5V17.9688H9.375Z" fill="#EBB38C"/>
<g opacity="0.2">
<path opacity="0.2" d="M37.5 10.9375H12.5C10.7812 10.9375 9.375 12.3437 9.375 14.0625V19.5312H40.625V14.0625C40.625 12.3437 39.2188 10.9375 37.5 10.9375Z" fill="black"/>
</g>
<path d="M37.5 9.375H12.5C10.7812 9.375 9.375 10.7812 9.375 12.5V17.9688H40.625V12.5C40.625 10.7812 39.2188 9.375 37.5 9.375Z" fill="#CD2E23"/>
<path d="M25 37.5C24.1406 37.5 23.4375 36.7969 23.4375 35.9375C23.4375 31.6406 24.8437 28.5156 26.1719 26.5625H21.0938C20.2344 26.5625 19.5312 25.8594 19.5312 25C19.5312 24.1406 20.2344 23.4375 21.0938 23.4375H29.6875C30.3906 23.4375 30.9375 23.9062 31.1719 24.5312C31.4063 25.1562 31.1719 25.8594 30.625 26.25C30.4688 26.4062 26.5625 29.2969 26.5625 35.9375C26.5625 36.7969 25.8594 37.5 25 37.5Z" fill="black"/>
<g opacity="0.2">
<path opacity="0.2" d="M15.625 16.4062C14.7656 16.4062 14.0625 15.7031 14.0625 14.8438V9.375C14.0625 8.51562 14.7656 7.8125 15.625 7.8125C16.4844 7.8125 17.1875 8.51562 17.1875 9.375V14.8438C17.1875 15.7031 16.4844 16.4062 15.625 16.4062Z" fill="black"/>
</g>
<g opacity="0.2">
<path opacity="0.2" d="M35.1562 16.4062C34.2969 16.4062 33.5938 15.7031 33.5938 14.8438V9.375C33.5938 8.51562 34.2969 7.8125 35.1562 7.8125C36.0156 7.8125 36.7188 8.51562 36.7188 9.375V14.8438C36.7188 15.7031 36.0156 16.4062 35.1562 16.4062Z" fill="black"/>
</g>
<path d="M15.625 14.8438C14.7656 14.8438 14.0625 14.1406 14.0625 13.2812V7.8125C14.0625 6.95312 14.7656 6.25 15.625 6.25C16.4844 6.25 17.1875 6.95312 17.1875 7.8125V13.2812C17.1875 14.1406 16.4844 14.8438 15.625 14.8438Z" fill="black"/>
<path d="M35.1562 14.8438C34.2969 14.8438 33.5938 14.1406 33.5938 13.2812V7.8125C33.5938 6.95312 34.2969 6.25 35.1562 6.25C36.0156 6.25 36.7188 6.95312 36.7188 7.8125V13.2812C36.7188 14.1406 36.0156 14.8438 35.1562 14.8438Z" fill="black"/>
</svg>
