<svg width="24" height="24" viewBox="0 0 24 24" fill="none" xmlns="http://www.w3.org/2000/svg">
<path d="M23.7427 18.2015C22.8493 16.5123 19.7469 14.6808 19.6103 14.6007C19.2117 14.3737 18.7957 14.2536 18.4064 14.2536C17.8275 14.2536 17.3537 14.5188 17.0667 15.0012C16.6129 15.544 16.0501 16.1786 15.9135 16.2769C14.8564 16.9942 14.0288 16.9128 13.1132 15.997L8.00289 10.8855C7.09303 9.97556 7.00939 9.13767 7.7217 8.08618C7.82136 7.94868 8.45581 7.38533 8.99861 6.93101C9.34475 6.72498 9.58234 6.41884 9.68645 6.04327C9.82482 5.54356 9.72293 4.95574 9.39636 4.38305C9.31939 4.25134 7.48723 1.14805 5.79922 0.254974C5.48421 0.0881061 5.12917 0 4.77324 0C4.18684 0 3.63514 0.22872 3.22048 0.642996L2.09128 1.77191C0.305388 3.55762 -0.341075 5.58183 0.168799 7.78804C0.594139 9.6267 1.83368 11.5833 3.8536 13.603L10.3961 20.1465C12.9526 22.7033 15.3898 24 17.6402 24C17.6402 24 17.6402 24 17.6407 24C19.2958 24 20.8387 23.2965 22.2255 21.9095L23.3543 20.7806C24.0403 20.0949 24.1961 19.0581 23.7427 18.2015Z" fill="#094709"/>
</svg>
