<svg width="24" height="25" viewBox="0 0 24 25" fill="none" xmlns="http://www.w3.org/2000/svg">
<path d="M23.04 0.343751H0.960001C0.833895 0.343619 0.709001 0.36836 0.592469 0.416558C0.475937 0.464756 0.370055 0.535464 0.280885 0.624635C0.191714 0.713805 0.121006 0.819687 0.0728082 0.936219C0.0246103 1.05275 -0.000131044 1.17764 5.21969e-07 1.30375V23.3838C5.21969e-07 23.9148 0.429 24.3438 0.960001 24.3438H23.04C23.571 24.3438 24 23.9148 24 23.3838V1.30375C24.0001 1.17764 23.9754 1.05275 23.9272 0.936219C23.879 0.819687 23.8083 0.713805 23.7191 0.624635C23.6299 0.535464 23.5241 0.464756 23.4075 0.416558C23.291 0.36836 23.1661 0.343619 23.04 0.343751ZM20.268 7.34875H18.351C16.848 7.34875 16.557 8.06275 16.557 9.11275V11.4258H20.145L19.677 15.0468H16.557V24.3438H12.816V15.0498H9.687V11.4258H12.816V8.75575C12.816 5.65675 14.709 3.96775 17.475 3.96775C18.801 3.96775 19.938 4.06675 20.271 4.11175V7.34875H20.268Z" fill="white"/>
</svg>
