<svg width="62" height="62" viewBox="0 0 62 62" fill="none" xmlns="http://www.w3.org/2000/svg">
<path d="M30.8999 61.7998C47.9654 61.7998 61.7998 47.9654 61.7998 30.8999C61.7998 13.8344 47.9654 0 30.8999 0C13.8344 0 0 13.8344 0 30.8999C0 47.9654 13.8344 61.7998 30.8999 61.7998Z" fill="#FFC200"/>
<path fill-rule="evenodd" clip-rule="evenodd" d="M52.587 52.9079C46.7557 58.6558 38.8811 61.8537 30.6933 61.7991C22.5056 61.7445 14.6743 58.442 8.92004 52.6169C9.65595 50.5818 11.0853 48.871 12.957 47.7849C14.2186 46.8522 15.5865 46.0727 17.032 45.4629C14.834 37.9099 20.809 34.1969 23.095 33.1279C23.095 36.6149 26.36 34.3009 30.412 34.3449C33.748 34.3819 40.345 37.7399 40.345 33.3099C44.015 34.3959 48.015 41.3899 45.262 45.6869C46.3908 46.2388 47.4572 46.91 48.443 47.6889C50.3703 48.9153 51.8297 50.7537 52.587 52.9089V52.9079Z" fill="#677079"/>
<path fill-rule="evenodd" clip-rule="evenodd" d="M24.032 38.6802L38.952 38.7702V42.2072L38.945 42.2602C38.9346 42.4159 38.9112 42.5704 38.875 42.7222L38.825 43.0632L38.795 43.1342C37.829 48.2082 33.602 50.1692 30.992 51.5352C28.242 50.0372 24.354 47.3382 24.045 42.5632L24.032 42.5042V42.3042C24.0298 42.2352 24.0285 42.1662 24.028 42.0972C24.028 42.1332 24.031 42.1672 24.032 42.2032V38.6802Z" fill="#F9DCA4"/>
<path opacity="0.11" fill-rule="evenodd" clip-rule="evenodd" d="M38.953 38.6172V42.6222C38.95 42.9934 38.9183 43.3639 38.858 43.7302C38.7822 44.1836 38.6547 44.6268 38.478 45.0512C33.294 48.9662 25.034 45.7552 23.715 39.0682L38.953 38.6172Z" fill="black"/>
<path fill-rule="evenodd" clip-rule="evenodd" d="M18.104 25.2349C13.164 26.5049 17.364 32.5249 20.471 32.4989C19.2181 30.2541 18.4141 27.7869 18.104 25.2349Z" fill="#F9DCA4"/>
<path fill-rule="evenodd" clip-rule="evenodd" d="M43.837 25.2349C48.777 26.5049 44.577 32.5249 41.469 32.4979C42.7223 30.2535 43.5266 27.7866 43.837 25.2349Z" fill="#F9DCA4"/>
<path fill-rule="evenodd" clip-rule="evenodd" d="M30.7329 11.3608C51.2559 11.3608 43.2579 43.8068 30.7329 43.8068C18.9029 43.8068 10.2099 11.3608 30.7329 11.3608Z" fill="#FFE8BE"/>
<path fill-rule="evenodd" clip-rule="evenodd" d="M21.0469 22.1048C21.222 22.2967 21.3519 22.5254 21.4269 22.7741C21.502 23.0228 21.5203 23.2852 21.4806 23.5419C21.4409 23.7986 21.3441 24.0432 21.1974 24.2576C21.0507 24.472 20.8578 24.6508 20.6329 24.7808C19.1829 25.9738 19.1299 30.1338 19.1299 30.1338C18.5699 29.5778 18.5829 26.5998 17.3689 24.8788C16.1549 23.1578 15.3369 11.1158 22.1259 6.73679C21.7088 7.22749 21.4081 7.80629 21.2465 8.42977C21.0849 9.05325 21.0666 9.70522 21.1929 10.3368C21.1929 10.3368 25.9089 3.57379 33.7329 3.76879C33.1127 4.107 32.5706 4.57211 32.1421 5.13381C31.7136 5.69551 31.4082 6.34119 31.2459 7.02879C31.2459 7.02879 38.0859 4.20679 43.7859 7.56379C42.304 7.97339 40.9024 8.63175 39.6409 9.51079C42.4089 9.58679 45.0839 10.1008 47.1009 11.8948C46.6669 12.0342 46.2651 12.2591 45.9194 12.5563C45.5737 12.8536 45.2911 13.2171 45.0882 13.6254C44.8854 14.0337 44.7664 14.4785 44.7384 14.9336C44.7103 15.3886 44.7738 15.8447 44.9249 16.2748C45.7809 19.7778 45.8609 23.0368 45.0319 24.7888C44.2029 26.5408 43.8119 25.4098 43.2929 29.0838C43.2675 29.332 43.1847 29.5709 43.0511 29.7816C42.9174 29.9923 42.7366 30.169 42.5229 30.2978C42.5029 30.5638 42.9049 26.5418 41.8679 25.4708C40.8319 24.4008 41.4829 23.0858 41.8969 22.3078C44.7869 16.8808 36.1319 14.4218 31.4009 14.4278C27.2979 14.4328 17.4009 16.2978 21.0469 22.1048Z" fill="#8A5C42"/>
<path fill-rule="evenodd" clip-rule="evenodd" d="M19.79 49.1619C19.82 49.1999 30.208 62.6449 42.42 48.9619C40.945 53.0139 34.583 56.2319 30.944 56.2219C23.994 56.2019 20.148 50.6219 19.79 49.1619Z" fill="#434955"/>
<path fill-rule="evenodd" clip-rule="evenodd" d="M36.3361 61.323C35.9261 61.395 35.5141 61.458 35.0991 61.515V52.578C35.1143 52.4283 35.1874 52.2905 35.3029 52.1941C35.4184 52.0976 35.5671 52.0502 35.7171 52.062C35.8672 52.05 36.0161 52.0972 36.1318 52.1937C36.2475 52.2902 36.3208 52.4281 36.3361 52.578V61.323ZM26.5161 61.489C26.1014 61.4296 25.6891 61.363 25.2791 61.289V52.578C25.2943 52.4283 25.3674 52.2905 25.4829 52.1941C25.5984 52.0976 25.7471 52.0502 25.8971 52.062C26.0474 52.0497 26.1965 52.0968 26.3125 52.1933C26.4284 52.2898 26.5018 52.4279 26.5171 52.578L26.5161 61.489Z" fill="#E6E6E6"/>
</svg>
