<svg width="50" height="50" viewBox="0 0 50 50" fill="none" xmlns="http://www.w3.org/2000/svg">
<g opacity="0.2">
<g opacity="0.2">
<path opacity="0.2" d="M20.3125 43.75C16.875 43.75 14.0625 40.9375 14.0625 37.5C14.0625 36.6406 14.7656 35.9375 15.625 35.9375C16.4844 35.9375 17.1875 36.6406 17.1875 37.5C17.1875 39.2188 18.5937 40.625 20.3125 40.625C22.0313 40.625 23.4375 39.2188 23.4375 37.5V9.375C23.4375 8.51562 24.1406 7.8125 25 7.8125C25.8594 7.8125 26.5625 8.51562 26.5625 9.375V37.5C26.5625 40.9375 23.75 43.75 20.3125 43.75Z" fill="black"/>
</g>
</g>
<path d="M20.3125 42.1875C16.875 42.1875 14.0625 39.375 14.0625 35.9375C14.0625 35.0781 14.7656 34.375 15.625 34.375C16.4844 34.375 17.1875 35.0781 17.1875 35.9375C17.1875 37.6563 18.5937 39.0625 20.3125 39.0625C22.0313 39.0625 23.4375 37.6563 23.4375 35.9375V7.8125C23.4375 6.95312 24.1406 6.25 25 6.25C25.8594 6.25 26.5625 6.95312 26.5625 7.8125V35.9375C26.5625 39.375 23.75 42.1875 20.3125 42.1875Z" fill="black"/>
<g opacity="0.2">
<path opacity="0.2" d="M25 9.375C14.6094 9.375 6.25 17.7344 6.25 28.125C10.1562 25.4687 14.7656 28.125 14.7656 28.125C14.7656 27.1875 19.375 25.5469 25 25.5469C30.625 25.5469 35.2344 27.1875 35.2344 28.125C35.2344 28.125 39.7656 25.4687 43.75 28.125C43.75 17.7344 35.3906 9.375 25 9.375Z" fill="black"/>
</g>
<path d="M14.7656 26.5625C14.7656 26.5625 15 12.7344 25 7.8125C14.6094 7.8125 6.25 16.1719 6.25 26.5625C10.1562 23.9062 14.7656 26.5625 14.7656 26.5625Z" fill="#CD2E23"/>
<path d="M35.2344 26.5625C35.2344 26.5625 39.7656 23.9062 43.75 26.5625C43.75 16.1719 35.3906 7.8125 25 7.8125C35 12.7344 35.2344 26.5625 35.2344 26.5625Z" fill="#CD2E23"/>
<path d="M14.7656 26.5625C14.7656 25.625 19.375 23.9844 25 23.9844C30.625 23.9844 35.2344 25.625 35.2344 26.5625C35.2344 26.5625 35 12.7344 25 7.8125C15 12.7344 14.7656 26.5625 14.7656 26.5625Z" fill="#EBB38C"/>
<path d="M25 10.1562C24.1406 10.1562 23.4375 9.45313 23.4375 8.59375V7.8125C23.4375 6.95312 24.1406 6.25 25 6.25C25.8594 6.25 26.5625 6.95312 26.5625 7.8125V8.59375C26.5625 9.45313 25.8594 10.1562 25 10.1562Z" fill="black"/>
</svg>
