<svg width="48" height="50" viewBox="0 0 48 50" fill="none" xmlns="http://www.w3.org/2000/svg">
<path d="M44.0677 43.5486H3.86577C3.66072 43.5486 3.46408 43.6335 3.31909 43.7848C3.1741 43.936 3.09265 44.1411 3.09265 44.355C3.09265 45.8521 3.66282 47.2878 4.67773 48.3464C5.69264 49.405 7.06915 49.9998 8.50445 49.9998H39.429C40.1397 49.9998 40.8434 49.8538 41.5 49.5701C42.1566 49.2864 42.7532 48.8706 43.2557 48.3464C43.7583 47.8223 44.1569 47.2 44.4288 46.5151C44.7008 45.8303 44.8408 45.0963 44.8408 44.355C44.8408 44.1411 44.7593 43.936 44.6144 43.7848C44.4694 43.6335 44.2727 43.5486 44.0677 43.5486Z" fill="#593F25"/>
<path d="M45.6137 38.7109H2.31934C1.0384 38.7109 0 39.794 0 41.1301V42.7429C0 44.079 1.0384 45.1621 2.31934 45.1621H45.6137C46.8946 45.1621 47.9331 44.079 47.9331 42.7429V41.1301C47.9331 39.794 46.8946 38.7109 45.6137 38.7109Z" fill="#EBB38C"/>
<path d="M37.8826 26.3807C37.817 26.2997 37.7674 26.206 37.7366 26.105C37.7058 26.004 37.6944 25.8977 37.703 25.7921C37.7116 25.6865 37.7401 25.5837 37.7868 25.4896C37.8335 25.3955 37.8976 25.3119 37.9753 25.2436L43.0547 20.8326C43.142 20.7568 43.2121 20.6619 43.2602 20.5546C43.3083 20.4472 43.3332 20.3302 43.333 20.2117V16.1314C43.333 15.9175 43.2516 15.7124 43.1066 15.5611C42.9616 15.4099 42.7649 15.325 42.5599 15.325H39.4288C39.2237 15.325 39.0271 15.24 38.8821 15.0888C38.7371 14.9375 38.6557 14.7324 38.6557 14.5186C38.6557 14.3047 38.7371 14.0996 38.8821 13.9483C39.0271 13.7971 39.2237 13.7122 39.4288 13.7122H42.5212C43.1364 13.7122 43.7263 13.967 44.1613 14.4207C44.5962 14.8744 44.8406 15.4897 44.8406 16.1314V20.2117C44.8411 20.5671 44.7666 20.9183 44.6223 21.2403C44.478 21.5622 44.2674 21.847 44.0056 22.0745L38.9263 26.4855C38.7715 26.608 38.5782 26.6653 38.3848 26.6458C38.1914 26.6264 38.0121 26.5317 37.8826 26.3807Z" fill="#593F25"/>
<path d="M37.8828 9.68018H10.0507C9.43554 9.68018 8.8456 9.93505 8.41064 10.3887C7.97568 10.8424 7.73132 11.4578 7.73132 12.0994V20.1633C7.73132 24.6546 9.44183 28.9619 12.4866 32.1377C15.5313 35.3135 19.6608 37.0977 23.9667 37.0977C28.2726 37.0977 32.4021 35.3135 35.4469 32.1377C38.4916 28.9619 40.2021 24.6546 40.2021 20.1633V12.0994C40.2021 11.4578 39.9577 10.8424 39.5228 10.3887C39.0878 9.93505 38.4979 9.68018 37.8828 9.68018Z" fill="#EBB38C"/>
<path d="M29.4867 31.7348C29.3876 31.5513 29.3613 31.3348 29.4133 31.1313C29.4653 30.9279 29.5915 30.7538 29.765 30.6461C32.2312 29.1564 34.0879 26.775 34.9835 23.953C35.0526 23.7572 35.1918 23.597 35.3718 23.506C35.5518 23.415 35.7587 23.4004 35.9488 23.4651C36.139 23.5298 36.2977 23.6689 36.3916 23.8531C36.4855 24.0373 36.5073 24.2524 36.4524 24.453C35.4424 27.6548 33.3369 30.3562 30.5381 32.0412C30.3596 32.1457 30.1488 32.1721 29.9517 32.1146C29.7546 32.0572 29.5874 31.9206 29.4867 31.7348Z" fill="white"/>
<path d="M29.641 16.7035C28.9139 15.917 27.9376 15.4327 26.8938 15.3407C25.85 15.2487 24.8097 15.5554 23.9664 16.2035C23.1231 15.5554 22.0827 15.2487 21.0389 15.3407C19.9951 15.4327 19.0189 15.917 18.2917 16.7035C17.4703 17.5893 17.0111 18.7734 17.0111 20.0057C17.0111 21.238 17.4703 22.4221 18.2917 23.3079L23.4097 28.7914C23.4819 28.8694 23.5683 28.9315 23.664 28.9739C23.7596 29.0163 23.8625 29.0382 23.9664 29.0382C24.0703 29.0382 24.1732 29.0163 24.2688 28.9739C24.3644 28.9315 24.4509 28.8694 24.523 28.7914L29.641 23.3079C30.4624 22.4221 30.9216 21.238 30.9216 20.0057C30.9216 18.7734 30.4624 17.5893 29.641 16.7035Z" fill="#CD2E23"/>
<path d="M23.4175 7.83342C23.1057 7.56955 22.8543 7.23645 22.6817 6.85839C22.509 6.48033 22.4194 6.06684 22.4194 5.64808C22.4194 5.22932 22.509 4.81584 22.6817 4.43778C22.8543 4.05972 23.1057 3.72661 23.4175 3.46275C24.1906 2.70473 24.1906 2.14025 23.4175 1.38224C23.2719 1.23039 23.1901 1.02444 23.1901 0.809697C23.1901 0.594952 23.2719 0.389002 23.4175 0.237155C23.563 0.0853071 23.7605 1.59997e-09 23.9664 0C24.1722 -1.59998e-09 24.3697 0.0853071 24.5153 0.237155C24.827 0.501021 25.0784 0.834128 25.251 1.21219C25.4237 1.59025 25.5133 2.00373 25.5133 2.42249C25.5133 2.84125 25.4237 3.25474 25.251 3.6328C25.0784 4.01086 24.827 4.34396 24.5153 4.60783C23.7808 5.36584 23.7808 5.93032 24.5153 6.68834C24.6609 6.84018 24.7426 7.04613 24.7426 7.26088C24.7426 7.47562 24.6609 7.68157 24.5153 7.83342C24.3697 7.98527 24.1722 8.07057 23.9664 8.07057C23.7605 8.07057 23.563 7.98527 23.4175 7.83342Z" fill="white"/>
<path d="M15.6867 7.83342C15.375 7.56955 15.1236 7.23645 14.951 6.85839C14.7783 6.48033 14.6887 6.06684 14.6887 5.64808C14.6887 5.22932 14.7783 4.81584 14.951 4.43778C15.1236 4.05972 15.375 3.72661 15.6867 3.46275C16.4212 2.70473 16.4212 2.14025 15.6867 1.38224C15.5412 1.23039 15.4594 1.02444 15.4594 0.809697C15.4594 0.594952 15.5412 0.389002 15.6867 0.237155C15.8323 0.0853071 16.0298 0 16.2357 0C16.4415 0 16.639 0.0853071 16.7846 0.237155C17.0963 0.501021 17.3477 0.834128 17.5203 1.21219C17.693 1.59025 17.7826 2.00373 17.7826 2.42249C17.7826 2.84125 17.693 3.25474 17.5203 3.6328C17.3477 4.01086 17.0963 4.34396 16.7846 4.60783C16.0501 5.36584 16.0501 5.93032 16.7846 6.68834C16.9301 6.84018 17.0119 7.04613 17.0119 7.26088C17.0119 7.47562 16.9301 7.68157 16.7846 7.83342C16.639 7.98527 16.4415 8.07057 16.2357 8.07057C16.0298 8.07057 15.8323 7.98527 15.6867 7.83342Z" fill="white"/>
<path d="M31.1488 7.83342C30.837 7.56955 30.5857 7.23645 30.413 6.85839C30.2403 6.48033 30.1508 6.06684 30.1508 5.64808C30.1508 5.22932 30.2403 4.81584 30.413 4.43778C30.5857 4.05972 30.837 3.72661 31.1488 3.46275C31.9219 2.70473 31.9219 2.14025 31.1488 1.38224C31.0032 1.23039 30.9214 1.02444 30.9214 0.809697C30.9214 0.594952 31.0032 0.389003 31.1488 0.237155C31.2944 0.0853072 31.4918 5.54248e-09 31.6977 0C31.9036 -5.54248e-09 32.101 0.0853071 32.2466 0.237155C32.5583 0.501021 32.8097 0.834128 32.9824 1.21219C33.155 1.59025 33.2446 2.00373 33.2446 2.42249C33.2446 2.84125 33.155 3.25474 32.9824 3.6328C32.8097 4.01086 32.5583 4.34396 32.2466 4.60783C31.4735 5.36584 31.4735 5.93032 32.2466 6.68834C32.3922 6.84018 32.474 7.04613 32.474 7.26088C32.474 7.47562 32.3922 7.68157 32.2466 7.83342C32.101 7.98527 31.9036 8.07057 31.6977 8.07057C31.4918 8.07057 31.2944 7.98527 31.1488 7.83342Z" fill="white"/>
</svg>
