<svg width="62" height="63" viewBox="0 0 62 63" fill="none" xmlns="http://www.w3.org/2000/svg">
<path fill-rule="evenodd" clip-rule="evenodd" d="M31.129 9.30713C52.41 9.30713 44.116 44.5731 31.129 44.5731C18.863 44.5731 9.848 9.30713 31.129 9.30713Z" fill="#FFE8BE"/>
<path d="M30.8999 62.6748C47.9654 62.6748 61.7998 48.8404 61.7998 31.7749C61.7998 14.7094 47.9654 0.875 30.8999 0.875C13.8344 0.875 0 14.7094 0 31.7749C0 48.8404 13.8344 62.6748 30.8999 62.6748Z" fill="#A9CF54"/>
<path fill-rule="evenodd" clip-rule="evenodd" d="M16.647 25.9788C16.647 25.9788 18.041 44.5988 14.667 49.6238C11.293 54.6488 31.177 49.4338 31.177 49.4338L31.183 14.5708L16.647 25.9788Z" fill="#302E33"/>
<path fill-rule="evenodd" clip-rule="evenodd" d="M45.705 25.9788C45.705 25.9788 44.311 44.5988 47.686 49.6238C51.061 54.6488 31.176 49.4338 31.176 49.4338L31.17 14.5708L45.705 25.9788Z" fill="#302E33"/>
<path fill-rule="evenodd" clip-rule="evenodd" d="M52.797 53.5762C52.189 52.1142 52.303 50.6582 47.432 48.3892C45.139 47.8472 39.222 47.0702 38.104 44.9892C37.537 43.9372 37.674 42.4542 37.674 39.6972L24.744 39.5552C24.744 42.3322 24.853 43.8132 24.22 44.8532C23.03 46.8102 15.285 48.2372 12.882 48.8772C8.789 50.6962 9.257 51.8022 8.717 53.2832C11.5732 56.2297 14.9878 58.5776 18.7614 60.19C22.535 61.8024 26.592 62.6469 30.6955 62.6741C34.7991 62.7014 38.867 61.911 42.6617 60.3489C46.4564 58.7868 49.9019 56.4844 52.797 53.5762Z" fill="#E5E5E5"/>
<path opacity="0.11" fill-rule="evenodd" clip-rule="evenodd" d="M37.677 39.653L37.662 42.154C37.57 43.1889 37.7601 44.2295 38.212 45.165C33.76 48.585 25.418 47.76 24.496 39.228L37.677 39.653Z" fill="black"/>
<path fill-rule="evenodd" clip-rule="evenodd" d="M19.11 25.0581C16.152 26.3481 18.668 32.4681 20.53 32.4411C19.7574 30.0472 19.2805 27.5678 19.11 25.0581Z" fill="#E5E5E5"/>
<path fill-rule="evenodd" clip-rule="evenodd" d="M43.507 25.0571C46.467 26.3491 43.95 32.4681 42.088 32.4411C42.8605 30.0469 43.337 27.5671 43.507 25.0571Z" fill="#E5E5E5"/>
<path fill-rule="evenodd" clip-rule="evenodd" d="M31.114 9.54102C39.836 9.54102 43.491 15.741 43.715 22.908C44.022 32.718 38.04 44.338 31.115 44.338C24.555 44.338 18.409 32.32 18.782 22.41C19.042 15.457 22.596 9.54102 31.114 9.54102Z" fill="#FFE8BE"/>
<path fill-rule="evenodd" clip-rule="evenodd" d="M31.183 14.5722C30.604 16.9832 27.883 24.7392 16.647 25.9792C15.477 6.65724 30.182 7.13124 31.183 7.18624C32.185 7.13124 46.89 6.65624 45.719 25.9792C34.484 24.7392 31.762 16.9832 31.183 14.5722Z" fill="#464449"/>
<path fill-rule="evenodd" clip-rule="evenodd" d="M52.797 53.576C37.927 58.154 18.629 55.391 12.882 48.877C8.789 50.696 9.257 51.802 8.717 53.283C11.5732 56.2294 14.9878 58.5774 18.7614 60.1898C22.535 61.8022 26.592 62.6467 30.6955 62.6739C34.7991 62.7012 38.867 61.9107 42.6617 60.3487C46.4564 58.7866 49.9019 56.4842 52.797 53.576Z" fill="#E9573E"/>
<path fill-rule="evenodd" clip-rule="evenodd" d="M42.797 47.3931L43.868 47.6461L43.864 55.7641H42.797V47.3931Z" fill="#E9573E"/>
<path fill-rule="evenodd" clip-rule="evenodd" d="M23.834 45.2949C23.836 45.3079 24.712 49.7459 31.378 49.7459C38.019 49.7459 38.424 45.4399 38.425 45.4279L38.613 45.6109C38.613 45.6229 38.049 50.3129 31.378 50.3129C24.581 50.3129 23.622 45.4829 23.619 45.4679L23.834 45.2949Z" fill="#464449"/>
<path d="M31.3239 52.2297C32.1593 52.2297 32.8366 51.3749 32.8366 50.3204C32.8366 49.266 32.1593 48.4111 31.3239 48.4111C30.4885 48.4111 29.8112 49.266 29.8112 50.3204C29.8112 51.3749 30.4885 52.2297 31.3239 52.2297Z" fill="#464449"/>
</svg>
